<svg  
	xmlns="http://www.w3.org/2000/svg"  

	style="display:none;"
	id="cart" 
	viewBox="0 0 72 85"
> 
	 	<path 
	 		d="M8 20a2 2 0 1 1 0-4 2 2 0 0 1 0 4zm0-3a1 1 0 1 0 0 2 1 1 0 0 0 0-2zM15 20a2 2 0 1 1 0-4 2 2 0 0 1 0 4zm0-3a1 1 0 1 0 0 2 1 1 0 0 0 0-2zM17.54 4.47c-.25-.3-.63-.47-1.04-.47H4.26l-.1-.6A1.72 1.72 0 0 0 2.5 2h-1a.5.5 0 0 0 0 1h1c.3 0 .62.27.67.57L4.84 13.6c.13.78.86 1.4 1.66 1.4h10a.5.5 0 0 0 0-1h-10a.72.72 0 0 1-.67-.57l-.25-1.48 9.97-.87a1.86 1.86 0 0 0 1.6-1.49l.68-4.02c.07-.4-.04-.8-.29-1.1zm-.7.93l-.67 4.03a.87.87 0 0 1-.71.66l-10.04.87-1-5.96H16.5c.12 0 .21.04.28.11s.08.18.06.3z"
	 	/> 
 </svg>